<?xml version="1.0" encoding="iso-8859-1"?>
<!-- Uploaded to: SVG Repo, www.svgrepo.com, Generator: SVG Repo Mixer Tools -->
<svg height="800px" width="800px" version="1.1" id="Layer_1" xmlns="http://www.w3.org/2000/svg" xmlns:xlink="http://www.w3.org/1999/xlink" 
	 viewBox="0 0 512 512" xml:space="preserve">
<path style="fill:#F7BA9C;" d="M456.348,267.13L456.348,267.13c0,36.883-29.9,66.783-66.783,66.783h-3.141L331.92,431.26
	c-6.134,10.955-16.746,17.585-28.147,17.585H256h-47.773c-11.401,0-22.013-6.63-28.147-17.585l-54.505-97.347h-3.141
	c-36.883,0-66.783-29.9-66.783-66.783l0,0c0-36.883,29.9-66.783,66.783-66.783h1.422c-6.305-16.414-9.77-34.236-9.77-52.87l0,0
	C114.087,66.028,180.115,0,261.565,0l0,0c0.087,0,0.174,0.003,0.26,0.003c0.931,16.023,4.425,31.358,10.069,45.606
	c15.034,30.366,39.492,54.577,70.864,67.824h21.51c30.737,0,55.653,24.917,55.653,55.653l0,0c0,12.79-4.324,24.562-11.579,33.956
	C436.082,211.158,456.348,236.77,456.348,267.13z"/>
<path style="fill:#B74941;" d="M456.348,267.13L456.348,267.13c0,36.883-29.9,66.783-66.783,66.783h-3.141L331.92,431.26
	c-6.134,10.955-16.746,17.585-28.147,17.585H256h-47.773c-11.401,0-22.013-6.63-28.147-17.585l-54.505-97.347h-3.141
	c-36.883,0-66.783-29.9-66.783-66.783l0,0c0-36.883,29.9-66.783,66.783-66.783h0.899c32.131,53.354,90.613,88.586,157.432,89.043
	c108.429,0.742,139.455-82.615,128.069-86.193C436.319,211.472,456.348,236.95,456.348,267.13z"/>
<path style="fill:#F7BA9C;" d="M129.804,304.947c-1.819,4.198-5.917,6.708-10.219,6.708c-1.477,0-2.977-0.296-4.42-0.92
	c-17.415-7.545-30.793-22.292-36.706-40.46c-1.902-5.846,1.293-12.127,7.139-14.029c5.846-1.903,12.127,1.294,14.029,7.139
	c3.939,12.102,12.828,21.916,24.389,26.924C129.656,292.753,132.247,299.306,129.804,304.947z"/>
<path style="fill:#DB6D53;" d="M420.291,169.087L420.291,169.087c0,12.79-0.557,59.272-95.468,59.272
	c-74.175,0-133.383-48.28-133.383-102.981c0-39.672,31.288-73.77,76.965-89.582c1.06,3.363,2.569,6.559,3.858,9.813
	c9.978,20.156,24.11,37.6,41.658,50.925c14.564,11.059,32.429,16.899,50.716,16.899l0,0
	C395.374,113.434,420.291,138.35,420.291,169.087z"/>
<path style="fill:#323030;" d="M333.205,500.866c0,6.147-4.983,11.13-11.13,11.13h-66.01c-0.022,0-0.042,0.003-0.065,0.003
	c-0.022,0-0.043-0.003-0.065-0.003h-66.01c-6.147,0-11.13-4.983-11.13-11.13s4.983-11.13,11.13-11.13h54.944v-40.89h-36.643
	c-11.401,0-22.013-6.63-28.147-17.585l-54.505-97.348h260.848L331.92,431.26c-6.134,10.955-16.746,17.585-28.147,17.585H267.13
	v40.89h54.944C328.222,489.736,333.205,494.719,333.205,500.866z"/>
<path style="fill:#403E3E;" d="M256,405.704c-43.216,0-79.202-30.89-87.126-71.791h174.25
	C335.202,374.814,299.216,405.704,256,405.704z"/>
<path style="fill:#612324;" d="M297.41,50.511c28.557-14.125,63.155-2.414,77.274,26.138c14.119,28.56,2.414,63.156-26.142,77.276
	c-28.56,14.12-63.155,2.414-77.274-26.142C257.145,99.227,268.851,64.63,297.41,50.511L297.41,50.511z"/>
<path style="fill:#92393C;" d="M315.678,58.369c14.785-7.313,32.697-1.25,40.006,13.532c7.309,14.786,1.25,32.697-13.535,40.007
	c-14.786,7.31-32.697,1.25-40.006-13.533C294.833,83.591,300.893,65.678,315.678,58.369L315.678,58.369z"/>
<path style="fill:#5C4D38;" d="M389.565,9.863c0,3.268-2.649,5.918-5.918,5.918c-1.38,0-2.711,0.509-3.75,1.431
	c-19.782,17.572-34.482,36.328-44.941,65.457c-0.867,2.415-3.143,3.919-5.57,3.919c-0.663,0-1.339-0.112-1.999-0.349
	c-3.076-1.104-4.674-4.493-3.57-7.57c11.146-31.043,26.919-55.329,48.22-74.25C375.244,1.569,379.368,0,383.647,0
	C386.916,0,389.565,6.595,389.565,9.863z"/>
</svg>